<svg xmlns="http://www.w3.org/2000/svg" xmlns:xlink="http://www.w3.org/1999/xlink" version="1.1" id="icon" x="0px" y="0px" width="100px" height="100px" viewBox="0 0 100 100" enable-background="new 0 0 100 100" xml:space="preserve">
<g id="Capa_16">
	<g>
		<path d="M69.045,29.402l2.047-5.19l-16.794-6.626L58.452,7.05L53.264,5l-4.157,10.539l-16.79-6.625l-2.052,5.188l3.051,1.204    l2.589,36.487l0.697-1.588l-2.701-34.669l13.16,5.191l-4.156,10.538l2.426,0.956L30.348,66.322l-1.271-0.006l-0.168,2.625    l10.36,1.227c0.04,0.002,0.08,0.004,0.12,0.004c0.524,0,1.026-0.22,1.384-0.607l2.403-2.664l2.617,9.197    c0.008,0.028,0.021,0.055,0.031,0.082l-4.868,5.987c-0.147,0.201-0.263,0.421-0.341,0.656l-1.191,3.581l-1.215-15.603    l-0.962-0.112l1.302,18.349l-1.491,4.479L41.515,95l3.439-10.339l4.729-5.796l2.749,7.941c0.166,0.452,0.469,0.846,0.865,1.118    l9.146,6.349l2.679-3.857l-3.115-2.163l5.261-59.552L69.045,29.402z M60.99,87.548l-4.406-3.059l-3.492-10.14l-0.016,0.004    c-0.02-0.104-0.025-0.207-0.057-0.313l-2.579-9.058l2.448,0.809l4.178,7.203l2.358-1.162l-1.616-3.867l-0.763-42.482l-0.709-0.279    l0.37,40.135l-0.82-1.967c-0.236-0.479-0.671-0.84-1.188-0.979l-7.259-2.354l-0.004,0.014c-0.724-0.269-1.532-0.33-2.332-0.103    c-0.837,0.239-1.515,0.753-1.992,1.405l-4.5,5.006l-7.097-0.032l14.36-33.891l2.22,0.876l4.155-10.537l14.463,5.705L60.99,87.548z    "/>
		<path d="M42.459,50.377c-2.398,0.51-3.933,2.865-3.42,5.266c0.507,2.397,2.863,3.936,5.26,3.424    c2.407-0.508,3.938-2.861,3.431-5.265C47.225,51.405,44.866,49.871,42.459,50.377z"/>
		<polygon points="56.27,17.549 56.909,17.803 56.827,13.233 56.241,14.719   "/>
		<polygon points="36.277,57.031 36.884,65.595 37.802,65.6 37.001,55.32   "/>
	</g>
</g>
</svg>