<svg xmlns="http://www.w3.org/2000/svg" xmlns:xlink="http://www.w3.org/1999/xlink" version="1.1" id="Layer_1" x="0px" y="0px" width="100px" height="100px" viewBox="0 0 100 100" enable-background="new 0 0 100 100" xml:space="preserve">
<path d="M49.174,9.202c-22.497,0-40.799,18.301-40.799,40.797c0,22.498,18.302,40.799,40.799,40.799  c22.495,0,40.797-18.301,40.797-40.799C89.971,27.503,71.669,9.202,49.174,9.202z M82.821,49.999c0,7.992-2.811,15.334-7.483,21.113  L28.061,23.835c5.778-4.671,13.121-7.484,21.113-7.484C67.727,16.351,82.821,31.445,82.821,49.999z M15.524,49.999  c0-7.991,2.811-15.331,7.482-21.109l47.276,47.277c-5.778,4.67-13.119,7.482-21.109,7.482  C30.619,83.649,15.524,68.554,15.524,49.999z"/>
</svg>